<svg width="18" height="19" viewBox="0 0 18 19" fill="none" xmlns="http://www.w3.org/2000/svg">
<path d="M6.6825 16.2099C6.54 16.2099 6.3975 16.1574 6.285 16.0449C6.0675 15.8274 5.78244 15.4248 5.99994 15.2073L10.9999 10.2073C11.3599 9.84734 11.3599 9.56734 10.9999 9.20734L5.99994 4.20734C5.78244 3.98984 6.0675 3.58735 6.285 3.36985C6.5025 3.15235 6.8625 3.15235 7.08 3.36985L11.97 8.25985C12.3525 8.64235 12.57 9.15985 12.57 9.70735C12.57 10.2549 12.36 10.7724 11.97 11.1549L7.08 16.0449C6.9675 16.1499 6.825 16.2099 6.6825 16.2099Z" fill="white"/>
</svg>
